<?xml version="1.0" standalone="no"?>
<!DOCTYPE svg PUBLIC "-//W3C//DTD SVG 20010904//EN"
 "http://www.w3.org/TR/2001/REC-SVG-20010904/DTD/svg10.dtd">
<svg version="1.0" xmlns="http://www.w3.org/2000/svg"
 width="890.000000pt" height="1187.000000pt" viewBox="0 0 890.000000 1187.000000"
 preserveAspectRatio="xMidYMid meet">
<metadata>
Created by potrace 1.16, written by Peter Selinger 2001-2019
</metadata>
<g transform="translate(0.000000,1187.000000) scale(0.100000,-0.100000)"
fill="#000000" stroke="none">
<path d="M4556 8765 c-3 -9 -11 -13 -16 -10 -6 4 -9 1 -8 -7 2 -7 -2 -12 -9
-11 -8 2 -10 -4 -6 -14 4 -10 2 -14 -5 -10 -6 4 -12 1 -14 -8 -6 -26 -29 0
-30 34 -1 19 -4 27 -9 20 -4 -7 -5 -18 -2 -26 3 -7 2 -20 -1 -29 -5 -14 -9
-14 -24 -3 -13 11 -13 9 2 -9 13 -15 23 -19 30 -12 16 16 25 12 23 -9 -1 -13
-5 -17 -12 -11 -5 4 -14 9 -20 9 -31 3 -44 15 -50 49 -6 32 -9 34 -16 17 -8
-17 -9 -16 -6 7 2 15 0 25 -4 22 -15 -9 -10 -44 6 -50 8 -4 15 -10 15 -16 0
-5 -6 -6 -12 -2 -10 6 -10 4 0 -7 15 -16 16 -33 0 -23 -7 4 -8 3 -4 -5 16 -26
23 -69 14 -82 -8 -11 -9 -10 -4 4 3 9 1 17 -5 17 -9 0 -4 -123 7 -158 2 -7 0
-11 -5 -8 -7 5 -22 -129 -38 -344 -10 -150 -7 -672 6 -810 6 -69 14 -152 16
-185 3 -33 11 -136 19 -230 9 -93 18 -230 22 -303 5 -98 11 -135 20 -139 8 -3
14 -11 14 -19 0 -8 4 -14 9 -14 15 0 7 27 -15 51 -10 12 -14 19 -7 16 6 -4 16
0 22 10 6 10 11 13 11 6 0 -6 -5 -15 -10 -18 -6 -4 -7 -11 -4 -17 4 -7 9 -7
13 1 4 6 7 -20 6 -57 0 -37 4 -70 10 -74 6 -5 5 -8 -3 -8 -8 0 -16 9 -19 19
-3 12 -11 17 -19 14 -10 -4 -12 -20 -7 -71 8 -90 9 -111 11 -188 1 -36 5 -63
10 -61 4 3 7 -29 7 -71 1 -143 12 -339 19 -351 4 -6 6 -31 5 -54 -2 -32 1 -41
11 -39 10 2 9 -3 -4 -17 -22 -24 -35 -29 -16 -5 11 13 10 16 -7 20 -15 4 -19
11 -15 27 5 20 3 19 -21 -6 -14 -15 -32 -27 -38 -27 -15 0 -119 -70 -119 -80
0 -18 -47 -18 -78 0 -18 11 -40 20 -48 20 -8 0 -14 4 -14 10 0 5 -16 17 -35
26 -19 9 -35 22 -35 29 0 21 -29 26 -39 7 -5 -9 -13 -14 -17 -10 -4 4 -1 16 7
25 13 17 13 17 -7 1 -11 -10 -30 -18 -42 -18 -16 0 -27 -11 -39 -36 -15 -31
-21 -35 -44 -30 -27 5 -59 -17 -46 -31 4 -3 2 -12 -4 -19 -9 -11 -15 -10 -35
3 -22 14 -24 14 -24 -1 0 -9 -10 -20 -22 -25 -13 -5 -31 -18 -41 -29 -11 -12
-26 -18 -37 -15 -12 3 -22 -1 -26 -11 -3 -9 -11 -16 -16 -16 -7 0 -6 5 1 14 9
10 8 16 -4 26 -12 10 -15 10 -15 -4 0 -19 -11 -21 -28 -4 -7 7 -12 8 -12 4 0
-5 -6 -3 -14 3 -10 9 -16 9 -21 1 -5 -8 -12 -5 -21 7 -13 17 -15 17 -25 1 -5
-10 -17 -18 -26 -18 -12 0 -14 -8 -11 -35 4 -37 2 -40 -21 -26 -15 10 -41 -8
-41 -28 0 -6 -4 -11 -10 -11 -5 0 -7 6 -4 13 2 7 -3 21 -11 32 -15 19 -16 17
-11 -26 5 -41 3 -47 -17 -56 -17 -8 -30 -7 -51 4 -23 12 -30 12 -43 1 -13 -10
-17 -10 -20 -1 -4 10 -10 9 -26 -2 -13 -8 -37 -15 -55 -17 -17 -1 -32 -6 -32
-10 0 -10 -40 -50 -40 -40 0 4 -5 -1 -11 -11 -6 -9 -14 -15 -19 -12 -5 3 -11
1 -15 -5 -9 -14 -42 -13 -49 3 -11 22 4 -206 19 -298 28 -171 78 -300 167
-426 76 -109 151 -148 275 -144 34 1 60 -2 57 -6 -7 -12 32 -21 79 -18 24 2
48 -1 55 -5 6 -4 40 -7 74 -7 35 0 135 -4 223 -9 88 -4 173 -9 188 -9 16 -1
26 -5 23 -9 -7 -11 -378 -5 -521 8 -109 11 -300 37 -333 46 -9 2 -3 -2 15 -11
28 -13 138 -29 426 -65 72 -8 101 -20 50 -20 -41 0 -90 -18 -97 -36 -5 -12
-20 -14 -78 -9 -40 3 -85 7 -99 10 -60 11 -154 22 -160 19 -4 -2 -4 -109 1
-231 0 -7 5 -13 11 -13 6 0 9 7 6 15 -4 8 -2 17 3 20 6 4 10 -3 10 -13 0 -25
20 -30 145 -38 61 -4 115 -13 140 -24 22 -9 56 -22 75 -28 30 -8 19 -10 -75
-13 -60 -1 -95 -4 -76 -6 19 -3 40 -11 48 -19 8 -8 18 -12 23 -9 5 3 12 1 15
-5 4 -6 15 -8 25 -5 13 4 22 -1 30 -16 23 -42 -3 -44 -226 -23 -68 6 -71 6
-77 -16 -9 -35 -1 -39 40 -24 49 17 93 17 116 0 16 -12 14 -14 -23 -18 -22 -2
-46 1 -52 7 -7 5 -6 2 1 -7 7 -10 11 -19 7 -19 -3 -1 -10 -2 -15 -3 -27 -3
-17 -15 18 -21 23 -4 43 -10 46 -14 7 -12 -143 -19 -200 -9 -13 2 -20 -3 -20
-12 0 -20 69 -36 187 -45 51 -4 107 -14 125 -22 33 -15 55 -21 86 -22 10 -1
16 -5 13 -10 -3 -4 -47 -6 -98 -4 -99 5 -115 -1 -33 -12 64 -8 74 -19 13 -13
-27 3 -48 1 -48 -3 0 -4 26 -10 58 -14 31 -3 69 -9 84 -11 l27 -5 -23 -25 -23
-25 -109 10 c-60 6 -121 13 -136 16 -20 4 -30 0 -38 -14 -17 -33 -12 -40 33
-38 31 2 42 -2 42 -13 0 -8 -7 -14 -15 -12 -8 2 -1 -8 15 -22 l30 -25 -37 8
c-24 6 -40 5 -48 -3 -8 -8 -13 -7 -19 3 -6 10 -10 10 -16 2 -5 -8 -11 -9 -19
-2 -16 13 -56 3 -56 -15 0 -14 54 -32 118 -39 20 -3 51 -7 67 -9 17 -3 52 -8
80 -12 27 -3 59 -13 70 -20 11 -8 29 -14 42 -14 12 0 25 -5 29 -11 5 -9 -21
-10 -96 -7 -88 4 -98 3 -74 -8 28 -12 28 -12 -11 -7 -22 3 -38 3 -35 0 7 -7
43 -14 151 -28 l86 -11 -24 -26 c-22 -24 -26 -25 -101 -18 -42 3 -104 11 -136
18 -53 10 -60 9 -72 -7 -18 -24 -9 -35 27 -35 21 0 28 -4 23 -12 -4 -7 2 -5
13 5 24 21 74 20 81 -2 4 -11 -3 -12 -30 -7 -25 4 -39 2 -47 -8 -8 -10 -9 -16
-1 -21 16 -10 2 -25 -18 -18 -14 5 -13 2 3 -11 11 -10 14 -15 8 -11 -7 3 -13
1 -13 -4 0 -6 5 -11 12 -11 6 0 8 -3 4 -7 -4 -5 -14 1 -22 11 -10 14 -14 16
-14 5 0 -10 -2 -11 -8 -2 -7 10 -38 20 -81 26 -8 1 -16 -3 -18 -9 -6 -17 44
-34 151 -50 152 -22 157 -24 172 -39 8 -7 34 -17 59 -21 80 -12 57 -21 -50
-20 -117 1 -124 -10 -16 -26 50 -7 71 -15 71 -25 0 -8 -4 -11 -10 -8 -5 3 -10
-3 -10 -14 0 -13 -7 -21 -16 -21 -14 0 -15 2 -3 18 12 15 11 15 -8 -1 -17 -15
-33 -17 -89 -14 -65 5 -114 12 -141 22 -10 3 -25 -17 -27 -38 -1 -4 -8 -12
-16 -17 -38 -23 26 -59 145 -81 33 -6 66 -15 73 -21 6 -6 12 -7 12 -3 0 4 8 1
17 -6 11 -10 14 -10 9 -1 -4 6 -2 12 3 12 6 0 11 -4 11 -8 0 -5 6 -9 13 -10 6
0 30 -5 52 -11 22 -5 66 -13 97 -16 31 -3 69 -10 85 -16 15 -6 29 -10 31 -10
16 5 42 -1 37 -8 -3 -6 4 -8 15 -6 11 2 20 -2 20 -8 0 -7 4 -6 10 3 6 9 10 11
10 3 0 -7 6 -10 14 -7 8 3 17 0 22 -7 4 -7 3 -10 -4 -5 -6 3 -14 1 -18 -5 -4
-8 -3 -9 4 -5 7 4 12 1 12 -6 0 -10 3 -9 9 2 6 8 7 18 5 22 -3 4 2 8 10 8 9 0
16 4 16 9 0 5 -9 7 -20 4 -11 -3 -20 -1 -20 4 0 11 42 9 59 -2 6 -3 11 0 11 7
0 7 9 0 20 -17 11 -16 24 -30 30 -30 6 0 15 -6 19 -14 10 -16 3 -43 -9 -36 -5
3 -12 0 -16 -6 -4 -8 -3 -9 4 -5 7 4 13 1 14 -6 0 -7 2 -17 2 -23 3 -20 18
-35 28 -29 7 5 9 -2 6 -20 -3 -14 -2 -29 2 -31 5 -3 7 10 6 29 -1 19 3 32 8
29 5 -4 6 0 0 8 -4 8 -7 24 -6 36 2 11 -1 24 -6 27 -5 3 -9 -9 -8 -27 0 -17
-3 -33 -9 -34 -5 0 -8 4 -6 10 7 24 8 66 0 79 -4 7 -4 18 2 24 6 8 3 16 -8 25
-16 13 -17 12 -5 -3 9 -11 10 -18 2 -23 -5 -3 -10 0 -10 7 0 10 -2 10 -8 1 -5
-9 -11 -6 -21 9 -11 18 -11 20 2 15 8 -3 19 -1 23 3 16 16 37 -7 38 -42 1 -29
4 -33 28 -32 20 1 25 -3 20 -15 -5 -14 -3 -14 11 -3 8 8 14 19 11 26 -7 17 22
41 31 26 4 -6 1 -9 -6 -8 -6 2 -14 -3 -17 -11 -3 -9 0 -11 9 -6 8 5 11 4 6 0
-4 -5 7 -25 25 -44 l33 -36 -31 28 c-32 29 -51 21 -33 -14 5 -10 3 -16 -6 -16
-7 0 -11 7 -7 15 4 11 2 13 -9 6 -8 -5 -17 -9 -21 -9 -13 0 -9 -20 4 -20 13 0
19 -83 6 -91 -4 -3 -5 -10 -2 -16 4 -6 2 -8 -4 -4 -6 3 -12 -3 -15 -16 l-4
-23 -2 23 c-1 25 -13 28 -30 8 -15 -17 5 -34 37 -31 16 1 22 -4 22 -18 0 -19
-5 -20 -143 -13 -78 3 -171 11 -206 17 -64 10 -96 6 -47 -7 14 -3 23 -11 19
-17 -3 -5 -1 -7 5 -3 6 3 13 2 17 -4 4 -6 12 -7 18 -3 7 4 6 -1 -2 -10 -12
-15 -12 -17 4 -11 14 6 16 4 10 -6 -6 -10 -4 -12 9 -7 14 6 17 3 12 -8 -3 -9
-2 -13 4 -10 6 3 10 1 10 -5 0 -18 40 -65 41 -49 0 8 4 3 10 -9 5 -13 6 -29 2
-35 -4 -8 -1 -7 9 1 12 10 18 9 28 -3 7 -8 11 -16 9 -16 -2 -1 -17 -3 -33 -5
-38 -4 -45 -13 -23 -29 13 -10 15 -14 5 -18 -17 -6 33 -26 96 -38 67 -12 462
-11 566 2 79 9 170 42 170 60 0 5 -8 6 -17 2 -15 -5 -16 -3 -5 8 19 21 15 27
-18 24 -16 -1 -30 1 -30 6 0 5 5 9 10 9 6 0 10 7 10 16 0 8 3 13 8 11 4 -3 14
2 22 11 13 14 13 15 -1 10 -9 -4 -16 -1 -16 8 0 7 4 11 9 8 12 -8 48 25 48 43
0 11 12 17 31 15 4 -1 5 8 2 18 -5 19 6 26 32 20 5 -1 7 1 3 5 -9 9 16 35 33
35 7 0 10 2 7 5 -3 3 -50 -2 -104 -11 -55 -9 -169 -18 -256 -20 -138 -3 -156
-1 -151 12 5 13 7 13 14 2 7 -10 9 -10 9 3 0 22 -11 31 -25 19 -8 -7 -12 -5
-12 5 0 8 4 12 9 9 8 -5 12 8 9 38 -1 9 3 19 9 23 5 3 10 12 10 18 0 7 -4 6
-10 -3 -7 -11 -10 -11 -10 -2 0 7 -4 11 -9 8 -5 -3 -7 -20 -5 -38 3 -24 1 -29
-6 -18 -9 14 -14 7 -11 -13 1 -5 -3 -6 -9 -2 -8 5 -7 12 2 22 11 14 10 15 -12
9 -21 -6 -22 -5 -7 4 9 6 22 8 27 5 7 -4 9 5 5 27 -3 18 -2 28 2 23 12 -17 38
-11 35 7 -1 9 2 19 8 23 5 3 7 0 4 -8 -2 -7 1 -14 9 -14 8 0 14 11 14 29 0 21
-3 25 -13 17 -9 -7 -12 -6 -9 8 1 10 -2 23 -7 30 -5 6 -8 20 -6 30 1 10 -2 25
-7 33 -8 13 -7 13 10 0 17 -14 18 -13 12 5 -7 20 -7 20 8 1 15 -20 15 -20 16
0 0 16 2 15 10 -5 5 -13 7 -26 4 -29 -3 -3 -5 1 -5 9 0 11 -2 11 -10 -1 -5 -8
-10 -19 -10 -25 0 -5 4 -4 9 4 6 9 11 10 15 2 4 -6 2 -11 -4 -11 -6 0 -8 -5
-5 -11 11 -16 13 -59 4 -53 -5 3 -9 0 -9 -5 0 -6 5 -11 11 -11 6 0 7 -5 2 -12
-4 -7 -6 -22 -4 -33 2 -11 -1 -16 -6 -12 -4 5 -8 13 -8 18 0 5 -3 9 -7 9 -7 0
-10 -5 -7 -12 7 -24 5 -38 -7 -38 -8 0 -14 -4 -14 -10 0 -5 7 -7 15 -4 10 4
20 -4 30 -27 8 -19 14 -28 15 -20 0 11 3 11 18 0 15 -12 15 -11 -1 8 -11 12
-14 24 -9 27 11 7 10 19 -5 56 -6 15 -7 30 -2 36 5 6 6 14 2 17 -12 13 13 7
27 -5 12 -11 12 -10 4 2 -14 20 -12 45 4 45 6 0 12 2 11 5 0 3 4 18 10 33 7
18 7 26 1 22 -6 -3 -10 -13 -10 -21 0 -8 -5 -12 -10 -9 -6 4 -8 10 -6 14 3 4
0 13 -5 21 -8 13 -9 13 -7 0 2 -9 -1 -18 -6 -20 -12 -6 -15 35 -4 52 6 10 8
10 8 -2 0 -13 1 -13 10 0 9 13 11 13 21 0 9 -13 10 -13 6 2 -3 9 1 19 9 22 10
4 13 2 8 -7 -6 -9 -5 -9 7 0 8 7 44 14 79 18 68 6 121 12 180 21 19 2 50 6 68
9 18 2 48 7 65 11 18 4 39 8 47 9 38 6 81 18 85 25 5 8 -87 5 -185 -6 -36 -4
-69 -6 -75 -5 -28 8 -135 5 -138 -3 -2 -6 -6 -3 -10 6 -4 13 -1 16 17 12 16
-3 23 1 23 12 0 9 -7 14 -17 11 -9 -2 -17 1 -17 8 0 7 11 11 24 9 13 -1 23 2
23 7 0 6 6 7 13 3 9 -6 9 -4 -1 8 -15 19 -6 27 35 34 15 3 49 16 76 30 27 13
54 24 60 24 7 0 25 7 41 15 16 9 31 13 34 11 2 -3 17 1 32 9 15 8 30 12 32 9
3 -2 11 2 17 10 7 8 18 13 25 10 7 -3 18 1 25 9 10 12 3 15 -44 15 -30 0 -52
-4 -50 -8 3 -5 -4 -6 -15 -3 -11 3 -20 7 -20 9 0 1 27 11 60 20 33 9 63 20 65
25 3 4 -8 4 -25 -1 -28 -8 -104 -14 -125 -10 -5 1 -14 1 -20 0 -5 -1 -7 2 -2
6 4 4 16 9 26 11 11 1 41 12 68 23 l48 20 -80 -6 c-44 -3 -130 -7 -191 -8 -62
-2 -117 -7 -123 -10 -6 -4 -11 -2 -11 3 0 6 -3 10 -7 10 -5 -1 -11 0 -15 1
-14 4 -28 7 -40 9 -21 2 1 13 34 17 43 5 138 33 138 40 0 4 -7 4 -15 0 -18 -7
-20 19 -2 31 6 4 14 8 17 9 26 4 163 51 191 65 20 10 58 23 85 30 27 6 54 16
59 22 7 7 6 8 -2 3 -6 -3 -14 -2 -18 3 -4 8 -60 9 -60 1 0 -1 -10 -4 -22 -5
-41 -4 -24 21 25 37 l47 16 -89 -6 c-68 -4 -87 -2 -82 7 5 7 10 10 13 7 3 -3
22 1 42 9 20 7 48 16 64 19 15 4 27 11 27 16 0 6 -10 8 -22 5 -13 -3 -85 -7
-161 -9 -75 -3 -141 -7 -146 -11 -5 -3 -13 0 -17 6 -4 7 -3 10 2 7 5 -2 20 7
34 20 14 14 19 22 13 18 -7 -4 -13 -2 -13 3 0 6 6 11 13 12 42 2 79 8 84 13 4
3 -21 4 -55 2 -37 -2 -65 1 -69 7 -4 6 0 8 10 4 9 -3 18 1 21 10 4 8 13 13 20
10 8 -3 16 -2 18 3 2 5 16 11 32 14 16 3 32 9 35 14 3 4 36 16 74 26 37 10 67
21 67 25 0 4 6 8 13 9 20 2 41 7 52 14 6 3 30 9 55 13 42 8 43 9 17 16 -32 9
-113 5 -142 -7 -18 -7 -18 -6 -5 8 9 8 32 21 53 27 20 7 37 14 37 16 0 2 -39
1 -87 -2 -49 -3 -84 -2 -80 3 4 4 13 9 20 10 32 6 162 46 167 51 3 3 -17 2
-45 -1 -27 -4 -105 -8 -172 -10 -66 -2 -126 -6 -131 -10 -6 -3 -13 0 -15 6 -4
9 -6 9 -6 1 -1 -8 -10 -9 -30 -3 -16 4 -33 5 -37 2 -4 -4 -5 -1 -2 7 2 8 17
15 34 17 35 2 86 12 134 24 33 9 33 9 -12 6 -33 -2 -46 0 -41 8 3 6 2 8 -2 3
-5 -4 -19 0 -32 8 -25 17 -31 8 -10 -15 10 -12 9 -12 -5 -1 -33 25 -20 40 42
52 33 6 63 16 66 20 3 5 16 9 29 9 13 0 27 5 30 10 4 6 10 8 15 5 4 -3 13 2
20 10 7 8 16 12 21 9 5 -3 9 -1 9 5 0 6 35 21 78 35 60 20 70 25 45 26 -33 0
-48 20 -15 20 9 0 23 4 30 9 7 4 -41 7 -107 5 -67 -2 -121 -1 -121 1 0 4 142
29 153 27 4 -1 7 3 7 8 0 6 6 10 13 10 7 0 22 7 33 15 18 14 18 15 -9 11 -17
-3 -30 0 -33 8 -3 7 -15 12 -28 11 -13 -2 -29 1 -37 6 -8 5 -9 9 -3 9 7 0 15
11 18 25 4 14 11 25 16 25 6 0 5 -8 -2 -20 -10 -15 -10 -22 -1 -31 9 -9 11 -7
7 8 -3 12 -1 24 5 27 13 9 3 36 -14 36 -13 0 -29 29 -21 37 2 3 19 6 38 8 18
2 48 8 67 14 19 6 38 8 42 5 5 -3 9 -2 9 3 0 4 19 9 43 10 61 3 69 5 59 15 -4
4 -35 10 -67 13 -32 3 -61 8 -63 10 -3 3 -12 -1 -20 -8 -11 -8 -14 -8 -9 0 5
9 -16 10 -85 7 -65 -3 -88 -1 -78 6 8 5 32 10 53 10 20 0 37 4 37 9 0 5 -85 7
-196 6 -108 -2 -194 -2 -192 0 7 7 103 14 248 20 148 5 411 32 500 51 70 15
100 26 100 38 0 7 23 41 50 75 59 73 80 113 110 201 42 126 72 281 85 450 2
36 7 97 11 136 5 61 4 72 -11 78 -10 4 -15 12 -11 22 4 10 1 14 -6 11 -7 -2
-12 -10 -10 -16 1 -7 -7 -9 -23 -5 -22 5 -47 -1 -147 -38 -15 -6 -25 -14 -22
-19 3 -5 -1 -9 -9 -9 -8 0 -14 8 -13 17 1 14 -10 19 -56 24 -32 4 -64 12 -72
19 -9 6 -20 9 -26 5 -5 -3 -10 2 -10 14 0 11 -4 22 -9 25 -5 4 -7 -4 -4 -16 3
-13 2 -20 -2 -16 -5 4 -14 3 -21 -3 -8 -6 -14 -6 -18 0 -4 5 -2 12 3 16 6 3 2
14 -9 25 -28 28 -25 38 13 54 l32 14 -43 -3 c-23 -2 -50 -9 -59 -16 -9 -8 -26
-12 -39 -11 -18 3 -27 -4 -36 -23 -8 -18 -16 -24 -27 -19 -14 6 -29 8 -90 13
-8 1 -11 7 -7 17 3 9 2 12 -5 9 -6 -4 -16 1 -24 11 -13 18 -14 18 -32 -3 -25
-30 -63 -40 -63 -17 0 30 -13 6 -15 -28 -2 -18 2 -36 8 -40 8 -5 5 -13 -7 -27
-25 -27 -33 -20 -33 27 0 27 -7 46 -22 61 -25 25 -41 27 -41 6 0 -34 -43 1
-55 45 -4 14 -34 47 -66 73 -32 26 -59 54 -59 62 0 18 -12 19 -27 4 -8 -8 -20
-9 -41 -1 -17 6 -33 8 -36 5 -9 -9 -7 -25 2 -19 5 3 9 -1 9 -9 0 -8 -6 -15
-14 -15 -11 0 -11 -5 -3 -20 6 -11 9 -24 6 -28 -3 -5 -1 -25 4 -45 4 -20 4
-39 -1 -42 -4 -3 -6 -13 -3 -23 5 -13 4 -14 -4 -3 -6 8 -8 25 -6 39 5 23 3 24
-12 11 -16 -12 -17 -12 -9 1 14 24 16 72 2 63 -8 -5 -8 -2 0 9 7 8 11 17 8 20
-3 2 -6 36 -7 74 -1 49 -6 73 -17 82 -14 11 -14 11 1 6 15 -5 16 1 12 63 -3
37 -7 77 -9 88 -2 11 -4 44 -4 73 -1 29 -4 51 -8 49 -5 -3 -9 23 -9 57 -2 92
-16 290 -21 299 -2 4 -10 4 -16 0 -7 -4 -6 1 2 10 10 13 12 32 7 74 -4 31 -9
94 -11 141 -3 53 -10 89 -18 94 -9 6 -9 8 1 8 9 0 11 11 8 38 -3 20 -8 82 -11
137 -3 55 -10 143 -15 195 -5 52 -12 122 -15 155 -18 216 -29 312 -39 324 -9
12 -8 13 3 6 11 -6 13 -4 8 9 -4 10 -7 36 -7 57 0 28 -4 38 -12 33 -6 -4 -8
-3 -5 3 4 6 9 159 12 339 3 181 7 344 9 362 2 18 7 63 10 100 10 103 26 183
43 215 8 16 13 38 10 48 -3 11 -1 17 4 13 5 -3 10 4 10 15 2 29 3 33 17 59 7
12 10 22 6 22 -3 0 10 20 31 46 20 25 35 47 32 50 -2 3 -7 -2 -11 -11z m-501
-5115 c-3 -5 -2 -10 4 -10 5 0 13 5 16 10 4 7 13 7 24 0 12 -6 22 -5 29 2 9 9
12 9 12 -1 0 -7 5 -9 13 -4 16 10 38 13 33 4 -3 -4 14 -7 37 -7 42 -1 118 -12
124 -18 18 -17 -584 -25 -613 -7 -22 12 -22 12 67 15 36 2 72 7 79 11 9 6 11
4 5 -5 -6 -9 -4 -11 4 -5 20 12 91 13 91 1 0 -6 4 -5 9 3 5 8 15 11 23 8 8 -3
21 -1 29 4 18 11 22 11 14 -1z m253 -101 c-28 -16 -126 -23 -313 -23 -212 0
-289 4 -278 15 14 13 55 16 333 16 174 1 269 -2 258 -8z"/>
</g>
</svg>
