<svg xmlns="http://www.w3.org/2000/svg" xmlns:xlink="http://www.w3.org/1999/xlink" width="372" height="487"><style>@keyframes rocketlaunch{0%{stroke-dashoffset:0}}.dash{stroke-dashoffset:600;stroke-dasharray:15;animation:rocketlaunch 3s linear infinite}.dash-slow{stroke-dashoffset:500;stroke-dasharray:12;animation:rocketlaunch 6s linear infinite}</style><defs><path id="a" d="M0 0h49v234H0z"/><path id="c" d="M0 .128h1.111v19.404H.001z"/><linearGradient id="d" x1="50%" x2="50%" y1="110.574%" y2="11.78%"><stop offset="0%" stop-color="#00D6E8"/><stop offset="100%" stop-color="#06C"/></linearGradient></defs><g fill="none" fill-rule="evenodd"><g transform="translate(109 1)"><path fill="#DAE8F7" stroke="#14428B" stroke-linejoin="round" stroke-width="3" d="M.006 258.604C-.373 211 19.514 191.007 21.46 189.39l13.056 76.94-26.134 23.04c-3.402 2.996-8.133-.108-8.175-5.36l-.201-25.406z"/><path fill="#DAE8F7" stroke="#14428B" stroke-linejoin="round" stroke-width="2" d="M156.002 258.604c.378-47.604-19.509-67.597-21.456-69.213l-13.055 76.94 26.134 23.039c3.403 2.996 8.134-.108 8.174-5.36l.203-25.406z"/><path stroke="#FFF" stroke-linecap="round" stroke-width="2" d="M77.84 289.28v-32.462m8.722 32.462v-19.426M68.028 289.28v-19.426m9.812-24.097v-7.384"/><path stroke="#FFF" stroke-linecap="round" stroke-linejoin="round" stroke-width="2" d="M32.96 131.596a382.251 382.251 0 0 0-1.23 27.026c-.12 11.733.34 19.207.34 19.207M53.572 50.816c-6.468 11.622-11.055 25.167-14.298 38.998"/><path stroke="#14428B" stroke-linecap="round" stroke-linejoin="round" stroke-width="2" d="M110.943 43.453L89.564 6.559c-5.067-8.745-17.734-8.745-22.8 0l-21.38 36.894"/><path fill="#59BBE5" d="M109.852 42.811L89.342 7.414c-4.862-8.39-17.015-8.39-21.876 0l-20.51 35.397h62.896z"/><path stroke="#14428B" stroke-linecap="round" stroke-width="2" d="M53.136 50.816l13.34-26.582m4.447-8.862l2.965-4.43"/><path fill="#FFF" stroke="#14428B" stroke-linecap="round" stroke-width="3" d="M102.559 301.358H53.496v-10.863l-.338-.667-5.437.074c-5.42.09-10.085-3.8-10.948-9.133l-13.919-85.99a93.144 93.144 0 0 1-1.16-17.45S16.79 97.163 43.196 49.338H113.1c26.406 47.825 21.502 127.99 21.502 127.99a93.146 93.146 0 0 1-1.162 17.45l-13.846 85.549c-.904 5.58-5.798 9.64-11.47 9.515l-5.564.652v9.777"/><path d="M30.256 134.325a379.93 379.93 0 0 0-1.236 27.004c-.121 11.724.342 19.192.342 19.192M51.03 54c-6.497 11.612-11.106 25.147-14.363 38.967" stroke="#14428B" stroke-linecap="round" stroke-linejoin="round" stroke-width="2"/><g transform="translate(78 54)"><mask id="b" fill="#fff"><use xlink:href="#a"/></mask><path fill="#DAE8F7" d="M48.695 123.955c.354-7.149 3.302-79.751-20.013-123.954H-.361c-9.68 0-9.682 77.996-.003 233.986 0 .001 8.142.005 24.425.01 5.27.122 9.818-3.829 10.657-9.259l13.325-86.19" mask="url(#b)"/></g><path stroke="#14428B" stroke-linecap="round" stroke-width="2" d="M79 286.85v-32.425m8.89 32.425v-19.404M69 286.85v-19.404m10-24.07v-7.375"/><g stroke="#14428B" stroke-linecap="round" stroke-width="2"><path fill="#FFF" d="M114.623 151.311c0 20.607-16.705 37.312-37.312 37.312-20.606 0-37.31-16.705-37.31-37.312 0-20.606 16.704-37.31 37.31-37.31 20.607 0 37.312 16.704 37.312 37.31z"/><path d="M47.588 151.311c0-16.415 13.308-29.723 29.723-29.723s29.722 13.308 29.722 29.723-13.307 29.723-29.722 29.723m-16.741-5.161a29.786 29.786 0 0 1-11.534-15.376"/></g><circle cx="77.5" cy="151.5" r="24.5" fill="#A7DFF2"/></g><path fill="url(#d)" d="M370.94 399.309c.04.605.06 1.215.06 1.83 0 15.314-12.373 27.727-27.637 27.727a27.76 27.76 0 0 1-3.19-.19c-3.74 10.866-14.019 18.675-26.121 18.675a27.458 27.458 0 0 1-17.045-5.91c-4.1 16.427-18.909 28.595-36.553 28.595-10.26 0-19.555-4.118-26.35-10.789-9.186 15.985-26.38 26.753-46.092 26.753-21.128 0-39.378-12.363-47.957-30.27-6.904 8.713-17.552 14.306-29.509 14.306-17.644 0-32.453-12.168-36.553-28.595a27.458 27.458 0 0 1-17.045 5.91c-12.102 0-22.38-7.809-26.122-18.675a27.76 27.76 0 0 1-3.19.19C12.374 428.866 0 416.453 0 401.139c0-.615.02-1.225.06-1.83-.04-.596-.06-1.197-.06-1.803 0-14.849 11.998-26.886 26.8-26.886.383 0 .763.013 1.142.028 2.014-13.799 13.855-24.394 28.169-24.394a28.264 28.264 0 0 1 15.086 4.342c3.422-8.458 11.686-14.425 21.344-14.425 2.872 0 5.62.532 8.154 1.496 3.89-5.96 10.597-9.898 18.226-9.898 10.705 0 19.599 7.753 21.425 17.965C149.083 332.103 164.79 323 182.733 323c17.378 0 32.669 8.532 41.553 21.454 2.488-10.064 11.55-17.525 22.35-17.525 8.805 0 16.452 4.959 20.327 12.242.507.174 1.008.36 1.503.553a22.864 22.864 0 0 1 10.83-2.713c9.095 0 16.956 5.29 20.7 12.97a28.262 28.262 0 0 1 14.056-3.727c14.33 0 26.184 10.622 28.175 24.446.652-.048 1.309-.08 1.974-.08 14.8 0 26.799 12.037 26.799 26.886 0 .606-.02 1.207-.06 1.803z" opacity=".798" transform="translate(0 1)"/><g stroke="#FFF" stroke-linecap="round"><path stroke-width="3" d="M28 370c2.754-13.697 14.665-24 28.942-24 5.5 0 10.649 1.53 15.058 4.193m32-11.258c3.156-5.918 9.304-9.935 16.374-9.935C130.66 329 139 337.506 139 348M2 395c0-1.658.171-3.274.498-4.837C4.782 379.226 14.661 371 26.5 371c13.53 0 24.5 10.745 24.5 24m-21-13c2.819 1.062 5.237 2.806 7 5"/><path stroke-width="3" d="M71 361c0-13.255 10.524-24 23.508-24 8.114 0 15.268 4.197 19.492 10.581M82 391c0-7.18 5.63-13 12.574-13 4.34 0 8.166 2.272 10.426 5.73M99 346c4.07 1.727 7.531 4.517 10 8m235 19c-2.92-14.268-15.548-25-30.685-25A31.22 31.22 0 0 0 301 350.513m-34-10.01C263.214 333.651 255.835 329 247.352 329 235.007 329 225 338.85 225 351m145 48c0-1.796-.178-3.547-.519-5.24C367.104 381.912 356.823 373 344.5 373c-14.083 0-25.5 11.64-25.5 26m21-16c-5.875 2.464-10 8.252-10 15m-29-42a24.46 24.46 0 0 0-1.646-4.558c-4.802-10.02-16.01-15.568-27.032-12.679-7.872 2.063-13.785 7.942-16.322 15.19m31.698 34.547h-23.554m-159.573 35.75H87.15M239 376h9.763m-128.29 18h12.218"/><path class="dash dash-slow" stroke-dasharray="10.809,7.206,1.801,10.809" stroke-linejoin="round" stroke-width="3" d="M148 415l22-106"/><path class="dash dash-slow" stroke-dasharray="11.02,7.347,1.837,11.02" stroke-linejoin="round" stroke-width="3" d="M228 416l-28-108"/><path class="dash" stroke-dasharray="12.725,8.483000000000001,2.121,12.725" stroke-linejoin="round" stroke-width="3" d="M185 439l-.5-122"/></g><path fill="#A5C3E3" d="M178.863 223c13.977-14.055 33.01-23.037 54.137-23.913a82.462 82.462 0 0 0-3.413-.087c-22.498 0-42.86 9.175-57.587 24h6.863z"/><path fill="#14428B" d="M186 210.185L180.296 206H172l9.54 7a85.476 85.476 0 0 1 4.46-2.815m1 7.785l7.489 6.03H202l-11.178-9a77.764 77.764 0 0 0-3.822 2.97"/></g></svg>